<svg xmlns="http://www.w3.org/2000/svg" xmlns:xlink="http://www.w3.org/1999/xlink" width="500" zoomAndPan="magnify" viewBox="0 0 375 374.999991" height="500" preserveAspectRatio="xMidYMid meet" version="1.0"><defs><clipPath id="fd3bff7165"><path d="M 122.433594 120.832031 L 271.683594 120.832031 L 271.683594 270.832031 L 122.433594 270.832031 Z M 122.433594 120.832031 " clip-rule="nonzero"/></clipPath></defs><g clip-path="url(#fd3bff7165)"><path fill="#65cf72" d="M 249.921875 142.691406 C 235.894531 128.65625 217.238281 120.910156 197.363281 120.910156 C 156.40625 120.910156 123.070312 154.222656 123.054688 195.171875 C 123.054688 208.261719 126.472656 221.042969 132.976562 232.300781 L 122.433594 270.785156 L 161.824219 260.457031 C 172.679688 266.375 184.898438 269.488281 197.332031 269.496094 L 197.363281 269.496094 C 238.3125 269.496094 271.652344 236.179688 271.660156 195.234375 C 271.660156 175.386719 263.949219 156.734375 249.914062 142.691406 Z M 197.363281 256.957031 L 197.339844 256.957031 C 186.261719 256.957031 175.386719 253.980469 165.902344 248.355469 L 163.648438 247.011719 L 140.273438 253.140625 L 146.507812 230.359375 L 145.039062 228.027344 C 138.855469 218.199219 135.59375 206.839844 135.601562 195.171875 C 135.617188 161.144531 163.324219 133.449219 197.382812 133.449219 C 213.882812 133.449219 229.382812 139.882812 241.046875 151.554688 C 252.710938 163.21875 259.125 178.730469 259.117188 195.226562 C 259.101562 229.261719 231.394531 256.957031 197.355469 256.957031 Z M 231.238281 210.730469 C 229.382812 209.800781 220.257812 205.3125 218.550781 204.695312 C 216.847656 204.074219 215.617188 203.769531 214.378906 205.621094 C 213.140625 207.484375 209.582031 211.664062 208.5 212.902344 C 207.414062 214.136719 206.332031 214.292969 204.472656 213.359375 C 202.617188 212.433594 196.636719 210.46875 189.539062 204.148438 C 184.023438 199.226562 180.292969 193.152344 179.210938 191.289062 C 178.128906 189.429688 179.101562 188.429688 180.027344 187.503906 C 180.859375 186.671875 181.878906 185.332031 182.816406 184.25 C 183.742188 183.167969 184.054688 182.390625 184.667969 181.152344 C 185.292969 179.914062 184.980469 178.832031 184.511719 177.898438 C 184.046875 176.972656 180.339844 167.835938 178.789062 164.121094 C 177.285156 160.507812 175.75 160.996094 174.613281 160.9375 C 173.53125 160.882812 172.292969 160.867188 171.054688 160.867188 C 169.816406 160.867188 167.808594 161.328125 166.101562 163.1875 C 164.398438 165.046875 159.609375 169.539062 159.609375 178.667969 C 159.609375 187.800781 166.257812 196.625 167.191406 197.871094 C 168.121094 199.109375 180.285156 217.851562 198.910156 225.890625 C 203.335938 227.804688 206.800781 228.945312 209.5 229.804688 C 213.949219 231.21875 217.996094 231.019531 221.191406 230.539062 C 224.757812 230.003906 232.171875 226.046875 233.722656 221.710938 C 235.269531 217.375 235.269531 213.664062 234.804688 212.886719 C 234.335938 212.109375 233.097656 211.648438 231.246094 210.714844 Z M 231.238281 210.730469 " fill-opacity="1" fill-rule="evenodd"/></g></svg>